<mxfile host="Electron" agent="Mozilla/5.0 (Macintosh; Intel Mac OS X 10_15_7) AppleWebKit/537.36 (KHTML, like Gecko) draw.io/28.0.6 Chrome/138.0.7204.100 Electron/37.2.3 Safari/537.36" version="28.0.6">
  <diagram name="Page-1" id="sjCgAa_epbBoUUtTD81m">
    <mxGraphModel dx="1051" dy="754" grid="1" gridSize="10" guides="1" tooltips="1" connect="1" arrows="1" fold="1" page="1" pageScale="1" pageWidth="850" pageHeight="1100" math="0" shadow="0">
      <root>
        <mxCell id="0" />
        <mxCell id="1" parent="0" />
        <mxCell id="ODeFXFRrJwwFYkndYNFc-1" value="&lt;span style=&quot;caret-color: rgb(0, 122, 255); orphans: 4; text-align: left; white-space-collapse: preserve;&quot;&gt;SchedulerAPI&lt;/span&gt;" style="rounded=1;whiteSpace=wrap;html=1;hachureGap=4;fontFamily=Times New Roman;labelBackgroundColor=none;fontSize=16;fillColor=#f8cecc;strokeColor=#b85450;strokeWidth=1;sketch=1;curveFitting=1;jiggle=2;fontStyle=1" vertex="1" parent="1">
          <mxGeometry x="10" y="335" width="160" height="90" as="geometry" />
        </mxCell>
        <mxCell id="ODeFXFRrJwwFYkndYNFc-4" value="RPC" style="triangle;whiteSpace=wrap;html=1;fontFamily=Times New Roman;rounded=1;hachureGap=4;labelBackgroundColor=none;fontSize=16;fillColor=#f0a30a;fontColor=#000000;strokeColor=#BD7000;strokeWidth=1;sketch=1;curveFitting=1;jiggle=2;fontStyle=1" vertex="1" parent="1">
          <mxGeometry x="180" y="340" width="60" height="80" as="geometry" />
        </mxCell>
        <mxCell id="ODeFXFRrJwwFYkndYNFc-76" value="" style="edgeStyle=orthogonalEdgeStyle;rounded=0;hachureGap=4;orthogonalLoop=1;jettySize=auto;html=1;fontFamily=Times New Roman;strokeWidth=1;sketch=1;curveFitting=1;jiggle=2;fontSize=16;fontStyle=1;labelBackgroundColor=none;" edge="1" parent="1" source="ODeFXFRrJwwFYkndYNFc-6" target="ODeFXFRrJwwFYkndYNFc-12">
          <mxGeometry relative="1" as="geometry">
            <Array as="points">
              <mxPoint x="440" y="376" />
              <mxPoint x="440" y="376" />
            </Array>
          </mxGeometry>
        </mxCell>
        <mxCell id="ODeFXFRrJwwFYkndYNFc-6" value="&lt;span style=&quot;caret-color: rgb(0, 122, 255); orphans: 4; text-align: left; white-space-collapse: preserve;&quot;&gt;SchedulerManager&lt;/span&gt;" style="rounded=1;whiteSpace=wrap;html=1;hachureGap=4;fontFamily=Times New Roman;labelBackgroundColor=none;fontSize=16;fillColor=#ffe6cc;strokeColor=#d79b00;strokeWidth=1;sketch=1;curveFitting=1;jiggle=2;fontStyle=1" vertex="1" parent="1">
          <mxGeometry x="240" y="335" width="180" height="82.5" as="geometry" />
        </mxCell>
        <mxCell id="ODeFXFRrJwwFYkndYNFc-10" value="TaskFlow" style="swimlane;whiteSpace=wrap;html=1;hachureGap=4;fontFamily=Times New Roman;labelBackgroundColor=none;fontSize=16;strokeWidth=1;sketch=1;curveFitting=1;jiggle=2;fontStyle=1;fillColor=#cce5ff;strokeColor=#36393d;startSize=40;" vertex="1" parent="1">
          <mxGeometry x="443.72" y="250" width="270" height="180" as="geometry" />
        </mxCell>
        <mxCell id="ODeFXFRrJwwFYkndYNFc-11" value="1.&amp;nbsp;&lt;span style=&quot;caret-color: rgb(0, 122, 255); orphans: 4; text-align: left; white-space: pre-wrap;&quot;&gt;ExtractSchedulerSpecTask&lt;/span&gt;" style="text;html=1;align=center;verticalAlign=middle;resizable=0;points=[];autosize=1;strokeColor=none;fillColor=none;fontFamily=Times New Roman;fontColor=default;labelBackgroundColor=none;fontSize=16;strokeWidth=1;sketch=1;curveFitting=1;jiggle=2;fontStyle=1" vertex="1" parent="ODeFXFRrJwwFYkndYNFc-10">
          <mxGeometry x="-7.5" y="60" width="270" height="30" as="geometry" />
        </mxCell>
        <mxCell id="ODeFXFRrJwwFYkndYNFc-12" value="&lt;span style=&quot;caret-color: rgb(0, 122, 255); orphans: 4; text-align: left; white-space: pre-wrap;&quot;&gt;2.ScheduleCreateVolumeTask&lt;/span&gt;" style="text;html=1;align=center;verticalAlign=middle;resizable=0;points=[];autosize=1;strokeColor=none;fillColor=none;fontFamily=Times New Roman;fontColor=default;labelBackgroundColor=none;fontSize=16;strokeWidth=1;sketch=1;curveFitting=1;jiggle=2;fontStyle=1" vertex="1" parent="ODeFXFRrJwwFYkndYNFc-10">
          <mxGeometry x="-7.5" y="115" width="270" height="30" as="geometry" />
        </mxCell>
        <mxCell id="ODeFXFRrJwwFYkndYNFc-21" value="" style="edgeStyle=orthogonalEdgeStyle;rounded=0;hachureGap=4;orthogonalLoop=1;jettySize=auto;html=1;fontFamily=Times New Roman;fontSize=16;labelBackgroundColor=none;strokeWidth=1;sketch=1;curveFitting=1;jiggle=2;fontStyle=1" edge="1" parent="1" source="ODeFXFRrJwwFYkndYNFc-16" target="ODeFXFRrJwwFYkndYNFc-20">
          <mxGeometry relative="1" as="geometry" />
        </mxCell>
        <mxCell id="ODeFXFRrJwwFYkndYNFc-16" value="&lt;div style=&quot;line-height: 18px; white-space: pre;&quot;&gt;&lt;span&gt;&lt;font&gt;_schedule&lt;/font&gt;&lt;/span&gt;&lt;/div&gt;" style="rhombus;whiteSpace=wrap;html=1;hachureGap=4;fontFamily=Times New Roman;labelBackgroundColor=none;fontSize=16;strokeWidth=1;fillColor=#cdeb8b;strokeColor=#36393d;sketch=1;curveFitting=1;jiggle=2;fontStyle=1" vertex="1" parent="1">
          <mxGeometry x="740" y="335" width="100" height="90" as="geometry" />
        </mxCell>
        <mxCell id="ODeFXFRrJwwFYkndYNFc-17" value="" style="edgeStyle=orthogonalEdgeStyle;rounded=0;hachureGap=4;orthogonalLoop=1;jettySize=auto;html=1;fontFamily=Times New Roman;fontColor=default;labelBackgroundColor=none;fontSize=16;entryX=0;entryY=0.5;entryDx=0;entryDy=0;strokeWidth=1;sketch=1;curveFitting=1;jiggle=2;fontStyle=1" edge="1" parent="1" target="ODeFXFRrJwwFYkndYNFc-16">
          <mxGeometry relative="1" as="geometry">
            <mxPoint x="702" y="379" as="sourcePoint" />
            <mxPoint x="726.2784795321636" y="380.0526315789473" as="targetPoint" />
          </mxGeometry>
        </mxCell>
        <mxCell id="ODeFXFRrJwwFYkndYNFc-20" value="Backend" style="shape=datastore;whiteSpace=wrap;html=1;hachureGap=4;fontFamily=Times New Roman;fontSize=16;labelBackgroundColor=none;strokeWidth=1;fillColor=#fff2cc;strokeColor=#d6b656;gradientColor=#ffd966;sketch=1;curveFitting=1;jiggle=2;fontStyle=1" vertex="1" parent="1">
          <mxGeometry x="860" y="340" width="80" height="80" as="geometry" />
        </mxCell>
        <mxCell id="ODeFXFRrJwwFYkndYNFc-24" value="&lt;span style=&quot;caret-color: rgb(0, 122, 255); color: rgb(51, 51, 51); orphans: 4; text-align: left; white-space-collapse: preserve;&quot;&gt;VolumeAPI&lt;/span&gt;" style="rounded=1;whiteSpace=wrap;html=1;hachureGap=4;fontFamily=Times New Roman;fontSize=16;labelBackgroundColor=none;fillColor=#f8cecc;strokeColor=#b85450;strokeWidth=1;sketch=1;curveFitting=1;jiggle=2;fontStyle=1" vertex="1" parent="1">
          <mxGeometry x="488.72" y="460" width="180" height="90" as="geometry" />
        </mxCell>
        <mxCell id="ODeFXFRrJwwFYkndYNFc-25" value="" style="edgeStyle=orthogonalEdgeStyle;rounded=0;hachureGap=4;orthogonalLoop=1;jettySize=auto;html=1;fontFamily=Times New Roman;fontSize=16;labelBackgroundColor=none;strokeWidth=1;sketch=1;curveFitting=1;jiggle=2;fontStyle=1" edge="1" parent="1" source="ODeFXFRrJwwFYkndYNFc-12">
          <mxGeometry relative="1" as="geometry">
            <mxPoint x="571.2200000000003" y="460" as="targetPoint" />
          </mxGeometry>
        </mxCell>
        <mxCell id="ODeFXFRrJwwFYkndYNFc-26" value="RPC" style="triangle;whiteSpace=wrap;html=1;fontFamily=Times New Roman;rounded=1;hachureGap=4;labelBackgroundColor=none;fontSize=16;fillColor=#f0a30a;fontColor=#000000;strokeColor=#BD7000;strokeWidth=1;sketch=1;curveFitting=1;jiggle=2;fontStyle=1" vertex="1" parent="1">
          <mxGeometry x="705" y="465" width="60" height="80" as="geometry" />
        </mxCell>
        <mxCell id="ODeFXFRrJwwFYkndYNFc-27" value="&lt;span style=&quot;caret-color: rgb(0, 122, 255); color: rgb(51, 51, 51); orphans: 4; text-align: left; white-space-collapse: preserve;&quot;&gt;VolumeManager&lt;/span&gt;" style="rounded=1;whiteSpace=wrap;html=1;hachureGap=4;fontFamily=Times New Roman;labelBackgroundColor=none;fontSize=16;fillColor=#ffe6cc;strokeColor=#d79b00;strokeWidth=1;sketch=1;curveFitting=1;jiggle=2;fontStyle=1" vertex="1" parent="1">
          <mxGeometry x="790" y="455" width="160" height="90" as="geometry" />
        </mxCell>
        <mxCell id="ODeFXFRrJwwFYkndYNFc-28" value="TaskFlow" style="swimlane;whiteSpace=wrap;html=1;hachureGap=4;fontFamily=Times New Roman;labelBackgroundColor=none;fontSize=16;strokeWidth=1;sketch=1;curveFitting=1;jiggle=2;fontStyle=1;fillColor=#cce5ff;strokeColor=#36393d;startSize=40;" vertex="1" parent="1">
          <mxGeometry x="1000" y="380" width="495" height="365" as="geometry" />
        </mxCell>
        <mxCell id="ODeFXFRrJwwFYkndYNFc-83" value="driver" style="swimlane;whiteSpace=wrap;html=1;hachureGap=4;fontFamily=Times New Roman;fillColor=#f8cecc;strokeColor=#b85450;sketch=1;curveFitting=1;jiggle=2;swimlaneFillColor=#FFCC99;fontSize=16;fontStyle=1;labelBackgroundColor=none;" vertex="1" parent="ODeFXFRrJwwFYkndYNFc-28">
          <mxGeometry x="240" y="160" width="235" height="200" as="geometry" />
        </mxCell>
        <mxCell id="ODeFXFRrJwwFYkndYNFc-87" value="_create_from_image" style="text;html=1;align=center;verticalAlign=middle;resizable=0;points=[];autosize=1;strokeColor=none;fillColor=none;fontFamily=Times New Roman;sketch=1;curveFitting=1;jiggle=2;fontSize=16;fontStyle=1;labelBackgroundColor=none;" vertex="1" parent="ODeFXFRrJwwFYkndYNFc-83">
          <mxGeometry x="15" y="123" width="160" height="30" as="geometry" />
        </mxCell>
        <mxCell id="ODeFXFRrJwwFYkndYNFc-86" value="_create_from_source_volume" style="text;html=1;align=center;verticalAlign=middle;resizable=0;points=[];autosize=1;strokeColor=none;fillColor=none;fontFamily=Times New Roman;sketch=1;curveFitting=1;jiggle=2;fontSize=16;fontStyle=1;labelBackgroundColor=none;" vertex="1" parent="ODeFXFRrJwwFYkndYNFc-83">
          <mxGeometry y="93" width="210" height="30" as="geometry" />
        </mxCell>
        <mxCell id="ODeFXFRrJwwFYkndYNFc-88" value="_create_from_backup" style="text;html=1;align=center;verticalAlign=middle;resizable=0;points=[];autosize=1;strokeColor=none;fillColor=none;fontFamily=Times New Roman;sketch=1;curveFitting=1;jiggle=2;fontSize=16;fontStyle=1;labelBackgroundColor=none;" vertex="1" parent="ODeFXFRrJwwFYkndYNFc-83">
          <mxGeometry x="20" y="163" width="160" height="30" as="geometry" />
        </mxCell>
        <mxCell id="ODeFXFRrJwwFYkndYNFc-85" value="_create_from_snapshot" style="text;html=1;align=center;verticalAlign=middle;resizable=0;points=[];autosize=1;strokeColor=none;fillColor=none;fontFamily=Times New Roman;sketch=1;curveFitting=1;jiggle=2;fontSize=16;fontStyle=1;labelBackgroundColor=none;" vertex="1" parent="ODeFXFRrJwwFYkndYNFc-83">
          <mxGeometry x="15" y="63" width="170" height="30" as="geometry" />
        </mxCell>
        <mxCell id="ODeFXFRrJwwFYkndYNFc-84" value="_create_raw_volume" style="text;html=1;align=center;verticalAlign=middle;resizable=0;points=[];autosize=1;strokeColor=none;fillColor=none;fontFamily=Times New Roman;sketch=1;curveFitting=1;jiggle=2;fontSize=16;fontStyle=1;labelBackgroundColor=none;" vertex="1" parent="ODeFXFRrJwwFYkndYNFc-83">
          <mxGeometry x="15" y="33" width="160" height="30" as="geometry" />
        </mxCell>
        <mxCell id="ODeFXFRrJwwFYkndYNFc-29" value="&lt;span style=&quot;caret-color: rgb(0, 122, 255); color: rgb(51, 51, 51); orphans: 4; text-align: left; white-space: pre-wrap;&quot;&gt;1.ExtractVolumeRefTask&lt;/span&gt;" style="text;html=1;align=center;verticalAlign=middle;resizable=0;points=[];autosize=1;strokeColor=none;fillColor=none;fontFamily=Times New Roman;fontColor=default;labelBackgroundColor=none;fontSize=16;strokeWidth=1;sketch=1;curveFitting=1;jiggle=2;fontStyle=1" vertex="1" parent="ODeFXFRrJwwFYkndYNFc-28">
          <mxGeometry x="5" y="48" width="230" height="30" as="geometry" />
        </mxCell>
        <mxCell id="ODeFXFRrJwwFYkndYNFc-33" value="&lt;span style=&quot;caret-color: rgb(0, 122, 255); color: rgb(51, 51, 51); orphans: 4; text-align: left; white-space: pre-wrap;&quot;&gt;3.ExtractVolumeSpecTask&lt;/span&gt;" style="text;html=1;align=center;verticalAlign=middle;resizable=0;points=[];autosize=1;strokeColor=none;fillColor=none;fontFamily=Times New Roman;fontSize=16;labelBackgroundColor=none;strokeWidth=1;sketch=1;curveFitting=1;jiggle=2;fontStyle=1" vertex="1" parent="ODeFXFRrJwwFYkndYNFc-28">
          <mxGeometry y="118" width="240" height="30" as="geometry" />
        </mxCell>
        <mxCell id="ODeFXFRrJwwFYkndYNFc-38" value="&lt;font&gt;5.CreateVolumeFromSpecTask&lt;/font&gt;" style="text;html=1;align=center;verticalAlign=middle;resizable=0;points=[];autosize=1;fontFamily=Times New Roman;fontSize=16;labelBackgroundColor=none;strokeWidth=1;labelBorderColor=none;fillColor=#f8cecc;strokeColor=#b85450;sketch=1;curveFitting=1;jiggle=2;fontStyle=1" vertex="1" parent="ODeFXFRrJwwFYkndYNFc-28">
          <mxGeometry x="20" y="225" width="220" height="30" as="geometry" />
        </mxCell>
        <mxCell id="ODeFXFRrJwwFYkndYNFc-58" value="&lt;span style=&quot;text-wrap-mode: nowrap;&quot;&gt;4.NotifyVolumeActionTask&lt;/span&gt;" style="html=1;whiteSpace=wrap;container=1;recursiveResize=0;collapsible=0;hachureGap=4;fontFamily=Times New Roman;fontSize=16;strokeWidth=1;fillColor=#b1ddf0;strokeColor=#10739e;sketch=1;curveFitting=1;jiggle=2;fontStyle=1;labelBackgroundColor=none;" vertex="1" parent="ODeFXFRrJwwFYkndYNFc-28">
          <mxGeometry x="-70" y="160" width="190" height="50" as="geometry" />
        </mxCell>
        <mxCell id="ODeFXFRrJwwFYkndYNFc-61" value="&lt;span style=&quot;text-wrap-mode: nowrap;&quot;&gt;6.CreateVolumeOnFinishTask&lt;/span&gt;" style="html=1;whiteSpace=wrap;container=1;recursiveResize=0;collapsible=0;hachureGap=4;fontFamily=Times New Roman;fontSize=16;strokeWidth=1;fillColor=#b1ddf0;strokeColor=#10739e;sketch=1;curveFitting=1;jiggle=2;fontStyle=1;labelBackgroundColor=none;" vertex="1" parent="ODeFXFRrJwwFYkndYNFc-28">
          <mxGeometry x="-70" y="280" width="190" height="50" as="geometry" />
        </mxCell>
        <mxCell id="ODeFXFRrJwwFYkndYNFc-32" value="&lt;span style=&quot;caret-color: rgb(0, 122, 255); color: rgb(51, 51, 51); font-variant-caps: normal; letter-spacing: normal; orphans: 4; text-align: left; text-indent: 0px; text-transform: none; white-space: pre-wrap; word-spacing: 0px; -webkit-text-stroke-width: 0px; text-decoration: none; float: none; display: inline !important;&quot;&gt;2.OnFailureRescheduleTask&lt;/span&gt;" style="text;whiteSpace=wrap;html=1;fontFamily=Times New Roman;fontSize=16;labelBackgroundColor=none;strokeWidth=1;fillColor=#fff2cc;strokeColor=#d6b656;sketch=1;curveFitting=1;jiggle=2;fontStyle=1" vertex="1" parent="ODeFXFRrJwwFYkndYNFc-28">
          <mxGeometry x="295" y="78" width="200" height="40" as="geometry" />
        </mxCell>
        <mxCell id="ODeFXFRrJwwFYkndYNFc-42" value="" style="endArrow=classic;html=1;rounded=0;hachureGap=4;fontFamily=Times New Roman;fontSize=16;strokeWidth=1;sketch=1;curveFitting=1;jiggle=2;fontStyle=1;labelBackgroundColor=none;shape=filledEdge;" edge="1" parent="1">
          <mxGeometry width="50" height="50" relative="1" as="geometry">
            <mxPoint x="960" y="500" as="sourcePoint" />
            <mxPoint x="990" y="501" as="targetPoint" />
          </mxGeometry>
        </mxCell>
        <mxCell id="ODeFXFRrJwwFYkndYNFc-68" value="" style="verticalLabelPosition=bottom;verticalAlign=top;html=1;shape=mxgraph.basic.arc;startAngle=0.3481425870525455;endAngle=0.1292243601698438;hachureGap=4;fontFamily=Times New Roman;rotation=80;fontSize=16;strokeWidth=1;fillColor=#fff2cc;strokeColor=#d6b656;sketch=1;curveFitting=1;jiggle=2;fontStyle=1;labelBackgroundColor=none;" vertex="1" parent="1">
          <mxGeometry x="1350" y="380" width="80" height="80" as="geometry" />
        </mxCell>
        <mxCell id="ODeFXFRrJwwFYkndYNFc-71" value="" style="shape=mxgraph.arrows2.wedgeArrow;html=1;bendable=0;startWidth=7;fillColor=#fff2cc;defaultFillColor=invert;defaultGradientColor=invert;rounded=0;hachureGap=4;fontFamily=Times New Roman;fontSize=16;strokeWidth=1;strokeColor=#d6b656;sketch=1;curveFitting=1;jiggle=2;fontStyle=1;labelBackgroundColor=none;" edge="1" parent="1">
          <mxGeometry width="100" height="100" relative="1" as="geometry">
            <mxPoint x="1426" y="440" as="sourcePoint" />
            <mxPoint x="1420" y="450" as="targetPoint" />
          </mxGeometry>
        </mxCell>
        <mxCell id="ODeFXFRrJwwFYkndYNFc-74" value="" style="edgeStyle=orthogonalEdgeStyle;rounded=0;hachureGap=4;orthogonalLoop=1;jettySize=auto;html=1;fontFamily=Times New Roman;strokeWidth=1;sketch=1;curveFitting=1;jiggle=2;fontSize=16;fontStyle=1;labelBackgroundColor=none;" edge="1" parent="1" source="ODeFXFRrJwwFYkndYNFc-12" target="ODeFXFRrJwwFYkndYNFc-16">
          <mxGeometry relative="1" as="geometry" />
        </mxCell>
      </root>
    </mxGraphModel>
  </diagram>
</mxfile>
